<svg width="473" height="346" viewBox="0 0 473 346" fill="none" xmlns="http://www.w3.org/2000/svg">
<path opacity="0.32" d="M25.2267 295.629C25.2267 180.39 47.3 9.71289 233.872 9.71289C420.444 9.71289 442.518 180.39 442.518 295.629H25.2267Z" fill="#69ADF7"/>
<path d="M135.52 187.8L141.49 183.585L135.783 171.749L128.761 173.788L120.857 164.601L123.915 157.958L113.058 150.558L108.002 155.835L96.5656 151.84L95.8929 144.556L82.796 143.578L81.0617 150.673L69.1526 152.933L64.9376 146.963L53.1021 152.671L55.1413 159.692L45.9546 167.597L39.3116 164.538L31.9117 175.397L37.1883 180.453L33.1941 191.889L25.9099 192.562L24.9324 205.66L32.0274 207.394L34.2872 219.304L28.3169 223.519L34.0245 235.355L41.0459 233.316L48.9502 242.503L45.8915 249.146L56.7495 256.546L61.8053 251.27L73.2414 255.264L73.9036 262.548L87.0005 263.526L88.7348 256.431L100.644 254.171L104.859 260.141L116.694 254.434L114.655 247.412L123.842 239.507L130.485 242.566L137.885 231.707L132.608 226.651L136.602 215.215L143.887 214.542L144.864 201.445L137.769 199.71L135.509 187.8H135.52ZM91.1629 233C74.9127 236.448 58.9358 226.073 55.4882 209.812C52.0405 193.561 62.415 177.583 78.6757 174.135C94.9258 170.688 110.903 181.063 114.35 197.324C117.798 213.575 107.424 229.553 91.1629 233Z" fill="#A4BBF9"/>
<path d="M233.736 77.6598L243.29 73.5497L238.844 55.3857L228.47 56.1635L220.166 41.0373L226.388 32.7016L213.46 19.1942L204.862 25.0492L190.114 16.1038L191.334 5.77087L173.381 0.546604L168.861 9.92296L151.612 9.55505L147.502 0L129.339 4.44641L130.107 14.8214L114.981 23.1255L106.646 16.9027L93.139 29.8319L98.9936 38.4304L90.0487 53.1782L79.7163 51.9589L74.4922 69.9127L83.8682 74.4327L83.5003 91.6822L73.9457 95.7923L78.3919 113.956L88.7663 113.178L97.0701 128.305L90.8475 136.64L103.776 150.148L112.374 144.293L127.121 153.238L125.902 163.571L143.855 168.795L148.375 159.419L165.624 159.787L169.733 169.342L187.897 164.896L187.119 154.521L202.244 146.216L210.58 152.439L224.086 139.51L218.232 130.912L227.177 116.164L237.509 117.383L242.733 99.4293L233.357 94.9093L233.736 77.6598ZM158.613 127.485C134.963 127.485 115.79 108.312 115.79 84.6605C115.79 61.0094 134.963 41.8362 158.613 41.8362C182.263 41.8362 201.435 61.0094 201.435 84.6605C201.435 108.312 182.263 127.485 158.613 127.485Z" fill="#A4BBF9"/>
<path d="M254.169 290.551C325.445 290.551 383.225 232.768 383.225 161.49C383.225 90.211 325.445 32.4282 254.169 32.4282C182.894 32.4282 125.114 90.211 125.114 161.49C125.114 232.768 182.894 290.551 254.169 290.551Z" stroke="white" stroke-width="3.44" stroke-miterlimit="10"/>
<path d="M453.018 180.778C453.596 192.015 428.012 195.116 392.338 199.468C356.663 203.82 321.03 226.746 321.03 226.746C321.03 226.746 339.519 181.377 383.624 168.017C427.729 154.657 452.451 169.825 453.008 180.778H453.018Z" fill="#82AD85"/>
<path d="M438.692 178.823C438.692 178.823 366.312 165.053 321.03 226.745" stroke="white" stroke-width="0.92" stroke-miterlimit="10" stroke-linecap="round"/>
<path d="M435.044 170.393L426.436 177.625L435.044 185.961" stroke="white" stroke-width="0.92" stroke-miterlimit="10" stroke-linecap="round"/>
<path d="M415.662 165.715L403.311 178.645L419.866 190.334" stroke="white" stroke-width="0.92" stroke-miterlimit="10" stroke-linecap="round"/>
<path d="M390.456 170.393L382.457 183.091L394.871 194.759" stroke="white" stroke-width="0.92" stroke-miterlimit="10" stroke-linecap="round"/>
<path d="M348.517 194.759L346.026 201.36L350.388 204.85" stroke="white" stroke-width="0.92" stroke-miterlimit="10" stroke-linecap="round"/>
<path d="M383.067 97.6317C382.468 95.582 361.435 103.255 361.435 103.255C361.435 103.255 362.066 120.999 360.069 121.262C358.061 121.514 346.015 112.285 346.015 112.285C346.015 112.285 328.661 124.71 321.03 141.791C321.03 141.791 331.373 153.249 330.816 156.35C330.259 159.45 310.866 162.678 310.866 162.678C310.866 162.678 307.629 178.708 308.543 192.678C308.543 192.678 318.171 195.694 318.171 197.093C318.171 198.491 308.386 205.796 308.386 205.796C308.386 205.796 306.924 222.373 309.037 224.896C311.15 227.429 329.408 217.874 329.408 217.874C329.408 217.874 330.186 206.08 332.466 203.83C334.747 201.581 344.733 210.295 344.733 210.295C344.733 210.295 361.288 194.801 367.679 185.971C374.069 177.142 374.763 173.305 374.763 173.305C374.763 173.305 359.543 165.61 360.069 162.667C360.594 159.724 383.067 156.339 383.067 156.339C383.067 156.339 386.441 139.037 386.441 129.009C386.441 129.009 372.114 130.155 371.273 127.516C370.433 124.878 386.441 114.051 386.441 114.051C386.441 114.051 385.6 106.335 383.067 97.6317Z" fill="#8BBB90"/>
<path d="M378.011 103.245C378.011 103.245 339.509 175.334 309.037 224.885" stroke="white" stroke-width="0.92" stroke-miterlimit="10" stroke-linecap="round"/>
<path d="M444.105 211.809C444.431 213.585 417.932 253.771 374.259 256.725C330.574 259.678 311.917 236.679 311.917 236.679C311.917 236.679 333.024 207.488 368.446 201.35C403.868 195.221 443.621 209.16 444.115 211.809H444.105Z" fill="#8BBB90"/>
<path d="M311.917 236.679C311.917 236.679 377.181 219.44 426.835 216.465" stroke="white" stroke-width="0.92" stroke-miterlimit="10" stroke-linecap="round"/>
<path d="M414.611 207.73L406.664 218.294L418.763 226.903" stroke="white" stroke-width="0.92" stroke-miterlimit="10" stroke-linecap="round"/>
<path d="M397.467 206.553L388.091 220.849L404.142 236.553" stroke="white" stroke-width="0.92" stroke-miterlimit="10" stroke-linecap="round"/>
<path d="M350.178 215.593L342.568 229.426L351.008 243.911" stroke="white" stroke-width="0.92" stroke-miterlimit="10" stroke-linecap="round"/>
<path d="M374.28 251.984C374.28 251.984 374.038 260.709 375.678 266.553" stroke="#BA5454" stroke-width="0.92" stroke-miterlimit="10" stroke-linecap="round"/>
<path d="M151.98 129.902C151.371 128.179 150.887 119.17 150.887 119.17V83.315C150.887 77.7334 146.367 73.2134 140.786 73.2134H52.7027C47.1213 73.2134 42.6015 77.7334 42.6015 83.315V133.949C42.6015 139.531 47.1213 144.051 52.7027 144.051H165.224C165.224 144.051 153.883 135.242 151.98 129.902Z" fill="#69ADF7"/>
<path d="M77.0665 106.27C80.219 103.118 80.219 98.0063 77.0665 94.8536C73.914 91.7009 68.8028 91.7009 65.6502 94.8536C62.4977 98.0063 62.4977 103.118 65.6502 106.27C68.8028 109.423 73.914 109.423 77.0665 106.27Z" fill="#1F3E56"/>
<path d="M57.7901 125.96C57.7901 118.466 63.8655 112.4 71.3494 112.4C78.8333 112.4 84.9087 118.476 84.9087 125.96H57.7796H57.7901Z" fill="#1F3E56"/>
<path d="M138.064 100.565H91.9093C90.4798 100.565 89.3131 99.4085 89.3131 97.9684C89.3131 96.5389 90.4693 95.3721 91.9093 95.3721H138.064C139.493 95.3721 140.66 96.5283 140.66 97.9684C140.66 99.398 139.504 100.565 138.064 100.565Z" fill="#1F3E56"/>
<path d="M138.063 110.236H91.9092C90.4797 110.236 89.3129 109.079 89.3129 107.639C89.3129 106.21 90.4692 105.043 91.9092 105.043H138.063C139.493 105.043 140.66 106.199 140.66 107.639C140.66 109.069 139.503 110.236 138.063 110.236Z" fill="#1F3E56"/>
<path d="M114.413 120.947H91.8986C90.4691 120.947 89.3024 119.79 89.3024 118.35C89.3024 116.921 90.4586 115.754 91.8986 115.754H114.413C115.843 115.754 117.01 116.91 117.01 118.35C117.01 119.78 115.853 120.947 114.413 120.947Z" fill="#1F3E56"/>
<path d="M52.6083 73.2241H140.891C146.409 73.2241 150.887 77.7021 150.887 83.2207V84.6607H42.6122V83.2207C42.6122 77.7021 47.0899 73.2241 52.6083 73.2241Z" fill="#1F3E56"/>
<path d="M127.899 82.1166C129.438 82.1166 130.685 80.8694 130.685 79.331C130.685 77.7926 129.438 76.5454 127.899 76.5454C126.361 76.5454 125.114 77.7926 125.114 79.331C125.114 80.8694 126.361 82.1166 127.899 82.1166Z" fill="white"/>
<path d="M139.798 79.331C139.798 80.8657 138.557 82.1166 137.012 82.1166C135.467 82.1166 134.227 80.8762 134.227 79.331C134.227 77.7858 135.467 76.5454 137.012 76.5454C138.557 76.5454 139.798 77.7858 139.798 79.331Z" fill="white"/>
<path d="M118.776 82.1166C120.314 82.1166 121.561 80.8694 121.561 79.331C121.561 77.7926 120.314 76.5454 118.776 76.5454C117.237 76.5454 115.99 77.7926 115.99 79.331C115.99 80.8694 117.237 82.1166 118.776 82.1166Z" fill="white"/>
<path d="M272.974 43.2656H199.301C195.853 43.2656 193.058 46.0611 193.058 49.5095V73.8754C193.058 77.3238 195.853 80.1193 199.301 80.1193H272.974C276.422 80.1193 279.217 77.3238 279.217 73.8754V49.5095C279.217 46.0611 276.422 43.2656 272.974 43.2656Z" fill="#CC8C40"/>
<path d="M273.1 43.2656H202.686C199.307 43.2656 196.568 46.0046 196.568 49.3834V74.0016C196.568 77.3803 199.307 80.1193 202.686 80.1193H273.1C276.478 80.1193 279.217 77.3803 279.217 74.0016V49.3834C279.217 46.0046 276.478 43.2656 273.1 43.2656Z" fill="#F4B247"/>
<path d="M196.568 49.3833C196.568 49.3833 215.667 80.1192 265.332 80.1192H202.402C199.186 80.1192 196.568 77.5124 196.568 74.2853V49.3833Z" fill="#E5A345"/>
<path d="M258.563 43.2656L272.627 46.1143C272.627 46.1143 276.894 47.1234 276.894 51.8746V78.7843C276.894 78.7843 279.207 77.1445 279.207 74.0016V49.3834C279.207 49.3834 278.902 43.2656 273.089 43.2656H258.552H258.563Z" fill="#F2CD70"/>
<path d="M209.486 69.5025V53.1675H212.787V59.5901H219.251V53.1675H222.552V69.5025H219.251V62.3651H212.787V69.5025H209.486Z" fill="white"/>
<path d="M225.947 69.5025V53.1675H238.056V55.932H229.247V59.548H237.446V62.3021H229.247V66.7485H238.371V69.5025H225.947Z" fill="white"/>
<path d="M241.262 69.5026V53.3042H244.562V66.7485H252.761V69.5026H241.262Z" fill="white"/>
<path d="M255.105 69.5025V53.1675H260.392C262.399 53.1675 263.703 53.2516 264.312 53.4093C265.248 53.651 266.036 54.1871 266.667 55.007C267.298 55.8269 267.613 56.8886 267.613 58.192C267.613 59.1906 267.434 60.0421 267.066 60.7253C266.698 61.4086 266.236 61.9447 265.679 62.3336C265.122 62.7225 264.544 62.9853 263.966 63.1115C263.177 63.2691 262.042 63.3427 260.549 63.3427H258.405V69.5025H255.105ZM258.405 55.932V60.5677H260.213C261.516 60.5677 262.378 60.4836 262.82 60.3154C263.261 60.1472 263.598 59.8739 263.85 59.5165C264.102 59.1486 264.218 58.7281 264.218 58.2446C264.218 57.6559 264.039 57.1619 263.692 56.773C263.345 56.384 262.904 56.1423 262.368 56.0477C261.979 55.9741 261.18 55.932 259.992 55.932H258.395H258.405Z" fill="white"/>
<path d="M299.956 55.249C307.363 55.249 313.368 49.2438 313.368 41.8361C313.368 34.4285 307.363 28.4233 299.956 28.4233C292.548 28.4233 286.543 34.4285 286.543 41.8361C286.543 49.2438 292.548 55.249 299.956 55.249Z" fill="#A4BBF9"/>
<path d="M291.662 24.6916L283.548 8.45113L292.419 5.64453L295.12 23.5984L291.662 24.6916Z" fill="#A4BBF9"/>
<path d="M317.583 33.5739L334.968 28.3496L336.219 37.5683L318.077 37.1688L317.583 33.5739Z" fill="#A4BBF9"/>
<path d="M307.25 24.0398L313.925 7.1582L321.934 11.8989L310.362 25.8794L307.25 24.0398Z" fill="#A4BBF9"/>
<path d="M473 335.268H0L30.1354 296.217H442.865L473 335.268Z" fill="#1B4B52"/>
<path d="M462.3 345.979H10.7003C4.79307 345.979 0 341.186 0 335.278H473C473 341.186 468.207 345.979 462.3 345.979Z" fill="#153C3F"/>
<path d="M197.714 224.381L186.036 232.264C186.036 232.264 185.479 198.543 186.383 178.844C187.276 159.146 188.559 150.021 189.494 145.628C190.419 141.234 191.964 138.227 220.954 136.02L197.725 224.381H197.714Z" fill="#151230"/>
<path d="M197.714 224.381C198.355 202.075 201.078 162.783 201.761 153.48C202.444 144.177 198.134 133.308 261.327 133.771C324.52 134.244 323.427 133.161 323.91 158.578C324.394 183.995 326.233 226.241 326.233 226.241C326.233 226.241 297.738 231.571 267.087 234.114C236.437 236.658 197.725 224.381 197.725 224.381H197.714Z" fill="#211944"/>
<path d="M212.451 182.502C212.451 182.502 270.745 178.329 313.094 180.232" stroke="white" stroke-width="0.92" stroke-miterlimit="10" stroke-linecap="round"/>
<path d="M246.16 193.897C246.16 193.897 237.257 195.621 231.36 197.303C225.463 198.995 210.99 205.87 204.63 222.857C198.271 239.843 184.197 299.455 184.197 299.455C184.197 299.455 228.953 306.802 267.792 306.634C306.63 306.466 344.092 296.08 344.092 296.08C344.092 296.08 323.69 229.153 319.769 218.168C315.848 207.184 306.777 197.471 295.478 194.896C284.168 192.31 277.798 191.742 277.798 191.742L246.181 193.908L246.16 193.897Z" fill="#A40412"/>
<path d="M255.967 101.384C243.374 103.077 232.096 114.461 234.23 139.195C236.363 163.929 245.308 174.409 262.483 174.808C279.648 175.218 288.131 154.773 286.281 133.676C284.431 112.579 276.379 98.6304 255.956 101.374L255.967 101.384Z" fill="#EC6B65"/>
<path d="M234.082 137.103C234.082 137.103 230.656 138.817 230.078 135.705C229.51 132.594 228.06 117.257 230.393 109.805C232.737 102.352 238.003 98.7673 245.424 97.2116C252.845 95.6559 281.109 92.4288 285.881 101.595C290.643 110.761 289.991 131.858 289.991 131.858C289.991 131.858 288.866 134.654 286.281 133.676C286.281 133.676 284.809 100.46 260.444 101.038C235.407 101.637 233.746 126.203 234.072 137.093L234.082 137.103Z" fill="#1F3E56"/>
<path d="M260.917 131.815C260.917 131.815 263.482 144.135 263.493 146.153C263.493 148.171 261.254 149.78 261.254 149.78" stroke="#BA5454" stroke-width="0.92" stroke-miterlimit="10" stroke-linecap="round"/>
<path d="M250.543 155.298L270.44 156.886C270.44 156.886 267.571 164.349 259.919 163.245C252.298 162.141 250.543 155.298 250.543 155.298Z" fill="white"/>
<path d="M251.373 137.923C251.216 139.058 250.164 139.846 249.029 139.689C247.894 139.531 247.106 138.48 247.263 137.345C247.421 136.209 248.472 135.421 249.607 135.579C250.743 135.736 251.531 136.787 251.373 137.923Z" fill="#1F3E56"/>
<path d="M246.38 131.364C246.38 131.364 248.146 129.167 252.445 130.344" stroke="#1F3E56" stroke-width="2.3" stroke-miterlimit="10" stroke-linecap="round"/>
<path d="M240.063 141.781C240.063 141.781 244.026 142.275 246.433 144.051" stroke="#BA5454" stroke-width="0.92" stroke-miterlimit="10" stroke-linecap="round"/>
<path d="M232.085 130.071C232.085 130.071 230.404 109.804 234.85 104.811C241.03 97.8737 245.434 97.222 245.434 97.222C245.434 97.222 246.244 94.489 246.822 93.585C246.822 93.585 233.683 96.6649 230.624 105.947C227.566 115.228 229.552 131.206 229.552 131.206L232.085 130.071Z" fill="#69ADF7"/>
<path d="M288.089 127.117C288.089 127.117 287.5 106.798 282.528 102.32C275.622 96.1182 271.166 95.95 271.166 95.95C271.166 95.95 270.051 93.3221 269.379 92.4917C269.379 92.4917 282.78 94.0895 286.859 102.972C290.937 111.854 290.737 127.958 290.737 127.958L288.089 127.106V127.117Z" fill="#69ADF7"/>
<path d="M234.24 129.945C234.24 129.945 228.028 128.956 226.336 136.777C224.654 144.598 228.438 153.238 236.122 151.493C236.122 151.493 233.546 142.243 234.23 129.945H234.24Z" fill="#69ADF7"/>
<g style="mix-blend-mode:multiply" opacity="0.27">
<path d="M225.999 139.216C225.999 139.216 232.769 141.938 236.132 151.493C236.132 151.493 225.716 153.627 225.999 139.216Z" fill="#69ADF7"/>
</g>
<path d="M285.44 126.623C285.44 126.623 291.515 124.973 294.027 132.573C296.539 140.162 293.712 149.17 285.871 148.256C285.871 148.256 287.437 138.785 285.44 126.633V126.623Z" fill="#69ADF7"/>
<g style="mix-blend-mode:multiply" opacity="0.27">
<path d="M294.626 134.948C294.626 134.948 288.194 138.386 285.871 148.245C285.871 148.245 296.455 149.255 294.626 134.948Z" fill="#69ADF7"/>
</g>
<path d="M232.022 151.189C232.022 151.189 231.633 149.107 228.869 149.212C228.869 149.212 225.306 161.627 231.444 165.001C237.583 168.375 253.665 166.399 253.665 166.399L254.085 163.414C254.085 163.414 239.927 164.065 234.618 162.268C229.3 160.46 232.022 151.178 232.022 151.178V151.189Z" fill="#69ADF7"/>
<path d="M253.801 160.418C251.689 161.175 250.396 162.268 250.459 163.519C250.511 164.77 250.27 168.701 253.328 168.869C256.387 169.027 262.946 169.426 264.775 168.627C266.604 167.829 267.035 161.017 264.407 160.912C261.779 160.807 255.452 159.84 253.812 160.428L253.801 160.418Z" fill="#69ADF7"/>
<path d="M249.282 171.644L246.16 193.897C246.16 193.897 254.243 199.395 263.251 198.28C272.259 197.166 277.777 191.732 277.777 191.732L273.857 171.423L249.271 171.655L249.282 171.644Z" fill="#EC6B65"/>
<path d="M249.282 171.644C249.282 171.644 254.306 175.019 262.494 174.808C270.672 174.598 273.867 171.413 273.867 171.413L275.034 177.457C275.034 177.457 270.23 181.546 262.137 181.725C254.054 181.914 248.399 177.941 248.399 177.941L249.282 171.634V171.644Z" fill="#B25252"/>
<path d="M360.962 140.866C358.587 142.212 358.66 145.586 359.785 149.286C360.899 152.986 364.567 170.551 364.567 170.551C364.567 170.551 365.955 182.061 368.456 184.594C368.456 184.594 374.648 250.975 374.269 251.995C373.891 253.014 356.968 240.611 356.968 240.611L338.7 277.706C338.7 277.706 364.809 306.098 391.507 295.387C418.206 284.665 405.802 231.76 401.209 211.325C396.616 190.88 393.83 185.814 393.83 185.814C393.83 185.814 396.563 182.944 395.764 176.994C394.965 171.045 390.057 157.989 389.416 157.443C388.774 156.896 368.887 155.698 368.887 155.698C368.887 155.698 366.312 147.446 365.734 144.913C365.156 142.38 362.15 140.204 360.952 140.877L360.962 140.866Z" fill="#EC6B65"/>
<path d="M173.034 247.275L200.468 267.804C200.468 267.804 181.516 301.525 170.185 301.263C158.854 301 149.731 293.084 151.003 281.322C152.274 269.56 173.023 247.275 173.023 247.275H173.034Z" fill="#EC6B65"/>
<path d="M184.754 266.354C184.754 266.354 235.428 280.67 251.037 284.192C266.646 287.713 277.64 287.734 288.162 295.092C298.694 302.44 300.534 308.2 297.517 310.807C297.517 310.807 294.185 314.318 290.832 311.196C290.832 311.196 289.192 313.424 286.133 312.247C283.075 311.07 280.951 307.349 276.758 307.517C272.564 307.685 272.406 311.837 260.98 311.364C249.565 310.902 170.017 305.026 162.439 299.78C154.86 294.535 156.668 266.595 184.743 266.364L184.754 266.354Z" fill="#EC6B65"/>
<path d="M283.148 301.567C283.148 301.567 289.497 305.94 290.842 311.185" stroke="#BA5454" stroke-width="0.92" stroke-miterlimit="10" stroke-linecap="round"/>
<path d="M288.814 299.129C288.814 299.129 295.772 305.594 297.528 310.797" stroke="#BA5454" stroke-width="0.92" stroke-miterlimit="10" stroke-linecap="round"/>
<path d="M170.942 245.709L201.666 268.729C201.666 268.729 232.054 217.517 231.36 197.303C231.36 197.303 218.442 199.216 203.716 212.786C188.99 226.367 170.942 245.698 170.942 245.698V245.709Z" fill="#A40412"/>
<path d="M303.035 197.818C303.035 197.818 327.316 211.641 358.481 238.119L338.71 277.706C338.71 277.706 298.873 226.157 295.572 213.028C292.282 199.899 303.035 197.818 303.035 197.818Z" fill="#A40412"/>
<path d="M245.245 98.5569C245.634 93.5008 249.187 89.9584 253.486 87.1098C257.785 84.2612 262.841 84.1035 263.493 85.6277C264.144 87.1624 262.998 89.1596 262.998 89.1596C262.998 89.1596 273.962 83.9248 278.944 88.5184C283.916 93.1119 284.42 100.817 283.316 102.541C282.213 104.265 276.516 101.731 276.516 101.731C276.516 101.731 280.163 109.594 275.633 112.127C271.103 114.661 261.863 111.633 257.953 104.601C257.953 104.601 244.446 108.984 245.256 98.5674L245.245 98.5569Z" fill="#1F3E56"/>
<path d="M270.892 137.923C271.05 139.058 272.101 139.846 273.236 139.689C274.372 139.531 275.16 138.48 275.002 137.345C274.845 136.209 273.793 135.421 272.658 135.579C271.523 135.736 270.735 136.787 270.892 137.923Z" fill="#1F3E56"/>
<path d="M275.896 131.364C275.896 131.364 274.13 129.167 269.831 130.344" stroke="#1F3E56" stroke-width="2.3" stroke-miterlimit="10" stroke-linecap="round"/>
<path d="M280.226 141.781C280.226 141.781 276.264 142.275 273.857 144.051" stroke="#BA5454" stroke-width="0.92" stroke-miterlimit="10" stroke-linecap="round"/>
<path d="M364.567 170.551C361.898 169.51 360.699 182.303 367.048 182.04C373.397 181.777 382.468 176.984 383.046 174.503C383.624 172.023 375.352 171.129 372.093 171.119C368.824 171.108 367.532 171.707 364.567 170.551Z" fill="#EC6B65"/>
<path d="M364.567 170.551C364.567 170.551 366.228 171.371 368.898 171.245C371.568 171.118 379.724 170.877 382.752 173.484C385.779 176.09 373.418 180.694 373.418 180.694" stroke="#BA5454" stroke-width="0.92" stroke-miterlimit="10" stroke-linecap="round"/>
<path d="M316.847 232.37H312.043C307.051 232.37 302.73 235.87 301.69 240.758L284.809 320.373H297.864L316.847 232.38V232.37Z" fill="#151230"/>
<path d="M425.879 320.362H290.832L306.903 240.516C307.86 235.775 312.022 232.37 316.857 232.37H431.187C437.599 232.37 442.402 238.235 441.141 244.521L425.879 320.362Z" fill="#211944"/>
<path d="M290.832 320.362H230.351C225.989 320.362 222.457 316.831 222.457 312.468V311.375H292.64L290.832 320.362Z" fill="#151230"/>
<path d="M370.727 293.295C377.345 293.295 382.71 287.93 382.71 281.312C382.71 274.694 377.345 269.329 370.727 269.329C364.109 269.329 358.744 274.694 358.744 281.312C358.744 287.93 364.109 293.295 370.727 293.295Z" fill="#A40412"/>
<path d="M368.898 155.677C368.898 155.677 371.683 172.432 374.132 173.242C376.582 174.051 385.148 173.641 388.438 173.441C391.728 173.242 394.755 171.76 394.356 167.628C393.956 163.466 391.266 155.551 387.892 154.689C384.517 153.827 369.161 150.547 368.908 155.677H368.898Z" fill="#EC6B65"/>
<path d="M375.015 152.86L380.46 173.725" stroke="#BA5454" stroke-width="0.92" stroke-miterlimit="10" stroke-linecap="round"/>
<path d="M382.846 153.638L387.871 173.473" stroke="#BA5454" stroke-width="0.92" stroke-miterlimit="10" stroke-linecap="round"/>
<path d="M369.308 157.969C369.308 157.969 371.547 170.593 373.418 172.601C375.289 174.598 388.438 173.452 388.438 173.452" stroke="#BA5454" stroke-width="0.92" stroke-miterlimit="10" stroke-linecap="round"/>
<path d="M152.674 231.308H63.1297C63.1297 231.308 59.1671 231.665 59.1671 252.236V316.189H139.987C139.987 316.189 145.905 314.549 145.905 297.668V248.82C145.905 244.826 146.157 231.297 152.674 231.297V231.308Z" fill="#6B94F7"/>
<path d="M152.674 231.308C154.808 231.308 155.281 240.054 155.281 245.036V256.652H145.905V248.831C145.905 248.831 145.327 231.308 152.674 231.308Z" fill="#5A80CC"/>
<path d="M131.105 250.25H71.854C70.8032 250.25 69.9514 251.102 69.9514 252.153V252.542C69.9514 253.592 70.8032 254.444 71.854 254.444H131.105C132.156 254.444 133.008 253.592 133.008 252.542V252.153C133.008 251.102 132.156 250.25 131.105 250.25Z" fill="#1F3E56"/>
<path d="M131.105 264.209H71.854C70.8032 264.209 69.9514 265.061 69.9514 266.112V266.501C69.9514 267.552 70.8032 268.404 71.854 268.404H131.105C132.156 268.404 133.008 267.552 133.008 266.501V266.112C133.008 265.061 132.156 264.209 131.105 264.209Z" fill="#1F3E56"/>
<path d="M131.105 278.179H71.854C70.8032 278.179 69.9514 279.031 69.9514 280.082V280.471C69.9514 281.521 70.8032 282.373 71.854 282.373H131.105C132.156 282.373 133.008 281.521 133.008 280.471V280.082C133.008 279.031 132.156 278.179 131.105 278.179Z" fill="#1F3E56"/>
<path d="M131.105 292.139H71.854C70.8032 292.139 69.9514 292.99 69.9514 294.041V294.43C69.9514 295.481 70.8032 296.333 71.854 296.333H131.105C132.156 296.333 133.008 295.481 133.008 294.43V294.041C133.008 292.99 132.156 292.139 131.105 292.139Z" fill="#1F3E56"/>
<path d="M47.6679 292.917H131.347C131.347 292.917 129.444 316.189 139.997 316.189H59.167C59.167 316.189 47.6574 314.013 47.6574 292.917H47.6679Z" fill="#80AAFF"/>
<path d="M372.661 80.1826H319.843C316.09 80.1826 313.052 83.2205 313.052 86.9731V109.3C311.381 118.287 299.525 128.399 299.525 128.399C313.242 127.832 321.314 124.563 321.314 124.563H372.661C376.413 124.563 379.451 121.525 379.451 117.772V86.9731C379.451 83.2205 376.413 80.1826 372.661 80.1826Z" fill="white"/>
<path d="M349.778 102.551C349.778 105.001 347.792 106.998 345.332 106.998C342.872 106.998 340.886 105.011 340.886 102.551C340.886 100.092 342.872 98.105 345.332 98.105C347.792 98.105 349.778 100.092 349.778 102.551Z" fill="#1F3E56"/>
<path d="M364.336 102.551C364.336 105.001 362.35 106.998 359.89 106.998C357.43 106.998 355.444 105.011 355.444 102.551C355.444 100.092 357.43 98.105 359.89 98.105C362.35 98.105 364.336 100.092 364.336 102.551Z" fill="#1F3E56"/>
<path d="M330.774 106.998C333.23 106.998 335.22 105.007 335.22 102.551C335.22 100.096 333.23 98.105 330.774 98.105C328.319 98.105 326.328 100.096 326.328 102.551C326.328 105.007 328.319 106.998 330.774 106.998Z" fill="#1F3E56"/>
</svg>
